<?xml version="1.0" encoding="utf-8"?>
<!-- Generator: Adobe Illustrator 16.0.0, SVG Export Plug-In . SVG Version: 6.00 Build 0)  -->
<!DOCTYPE svg PUBLIC "-//W3C//DTD SVG 1.0//EN" "http://www.w3.org/TR/2001/REC-SVG-20010904/DTD/svg10.dtd">
<svg version="1.0" id="Layer_1" xmlns="http://www.w3.org/2000/svg" xmlns:xlink="http://www.w3.org/1999/xlink" x="0px" y="0px"
	 width="165px" height="460px" viewBox="0 0 165 460" enable-background="new 0 0 165 460" xml:space="preserve">
<rect x="29.894" y="207.487" fill="#FFFDF4" width="97.821" height="32.138"/>
<polyline fill="#FFFDF4" points="154.525,189.69 127.715,207.487 29.894,207.487 6.432,189.69 11.743,178.847 29.894,178.847 
	70.083,174.958 111.45,174.958 154.525,189.69 154.525,189.69 "/>
<polygon fill="#FFFDF4" points="6.432,280.676 29.894,239.625 127.715,239.625 157.298,280.676 "/>
<polyline fill="#FFFFFF" points="6.432,444.072 6.992,444.623 15.75,453.242 147.634,453.242 157.298,444.072 81.865,431.064 
	6.432,444.072 "/>
<rect x="6.432" y="280.676" fill="#FFFFFF" width="150.866" height="163.396"/>
<rect x="6.432" y="84.72" fill="#FFFDF4" width="148.093" height="104.97"/>
<polygon fill="#FFFDF4" points="156.178,83.872 156.178,114.202 153.708,116.671 149.584,116.671 149.584,102.538 146.984,84.72 "/>
<rect x="58.223" y="24.364" fill="#686C65" width="13.398" height="32.257"/>
<polygon fill="#1D1012" points="71.9,56.621 96.465,56.621 96.465,24.364 115.447,24.364 115.447,7.72 42.869,7.72 42.869,24.364 
	71.9,24.364 "/>
<rect x="68.15" y="56.621" fill="#1D1012" width="8.572" height="28.099"/>
<rect x="114.439" y="56.621" fill="#1D1012" width="8.57" height="28.099"/>
<rect x="21.862" y="56.621" fill="#1D1012" width="8.572" height="28.099"/>
<rect x="83.579" y="56.621" fill="#1D1012" width="8.573" height="28.099"/>
<rect x="99.01" y="56.621" fill="#1D1012" width="8.571" height="28.099"/>
<rect x="37.29" y="56.621" fill="#1D1012" width="8.574" height="28.099"/>
<rect x="129.868" y="56.621" fill="#1D1012" width="8.571" height="28.099"/>
<rect x="145.298" y="56.621" fill="#1D1012" width="8.572" height="28.099"/>
<rect x="52.72" y="56.621" fill="#1D1012" width="8.572" height="28.099"/>
<rect x="9.004" y="56.621" fill="#1D1012" width="6" height="28.099"/>
<rect x="15.004" y="56.621" fill="#5C5858" width="6.858" height="28.099"/>
<rect x="30.434" y="56.621" fill="#5C5858" width="6.856" height="28.099"/>
<rect x="45.864" y="56.621" fill="#5C5858" width="6.856" height="28.099"/>
<rect x="61.292" y="56.621" fill="#5C5858" width="6.857" height="28.099"/>
<rect x="76.722" y="56.621" fill="#5C5858" width="6.857" height="28.099"/>
<rect x="92.152" y="56.621" fill="#5C5858" width="6.856" height="28.099"/>
<rect x="107.581" y="56.621" fill="#5C5858" width="6.858" height="28.099"/>
<rect x="123.011" y="56.621" fill="#5C5858" width="6.857" height="28.099"/>
<rect x="138.439" y="56.621" fill="#5C5858" width="6.857" height="28.099"/>
<rect x="153.87" y="56.621" fill="#5C5858" width="3.428" height="28.099"/>
<rect x="6.432" y="56.621" fill="#5C5858" width="2.572" height="28.099"/>
<rect x="7.011" y="99.5" fill="#100103" width="149.167" height="6.075"/>
<rect x="7.139" y="98.234" fill="#5C5858" width="149.039" height="1.266"/>
<rect x="7.139" y="105.241" fill="#5C5858" width="149.039" height="1.266"/>
<rect x="6.204" y="303.068" fill="#51B4DF" width="151.094" height="20.039"/>
<rect x="6.204" y="411.498" fill="#51B4DF" width="151.094" height="17.92"/>
<rect x="60.89" y="397.594" fill="#676664" width="34.415" height="54.92"/>
<rect x="68.433" y="397.83" fill="#1C0E0F" width="24.043" height="54.912"/>
<polygon opacity="0.1" fill="#231F20" enable-background="new    " points="21.862,84.72 21.862,185.899 46.018,209.165 
	61.447,209.165 39.322,185.919 38.968,84.72 "/>
<polygon opacity="0.1" fill="#231F20" enable-background="new    " points="38.261,445.795 22.704,445.795 22.704,280.676 
	48.161,239.663 64.426,239.663 38.615,280.676 "/>
<rect x="61.447" y="124.397" opacity="0.2" fill="#231F20" enable-background="new    " width="38.336" height="47.379"/>
<rect x="64.426" y="124.397" opacity="0.4" fill="#231F20" enable-background="new    " width="3.182" height="47.379"/>
<rect x="64.426" y="167.533" opacity="0.4" fill="#231F20" enable-background="new    " width="35.357" height="4.243"/>
</svg>
