<?xml version="1.0" encoding="utf-8"?>
<!-- Generator: Adobe Illustrator 16.0.0, SVG Export Plug-In . SVG Version: 6.00 Build 0)  -->
<!DOCTYPE svg PUBLIC "-//W3C//DTD SVG 1.0//EN" "http://www.w3.org/TR/2001/REC-SVG-20010904/DTD/svg10.dtd">
<svg version="1.0" id="Layer_1" xmlns="http://www.w3.org/2000/svg" xmlns:xlink="http://www.w3.org/1999/xlink" x="0px" y="0px"
	 width="230px" height="270px" viewBox="0 0 230 270" enable-background="new 0 0 230 270" xml:space="preserve">
<g>
	<path fill="#ADD036" d="M208.813,266.074c0,0,43.393-64.049-11.683-124.047c-23.921-15.189-55.628-28.606-55.628-28.606
		s-23.639-10.382-50.623,0c-26.979,10.38-49.231,20.254-60.637,27.087c-11.403,6.84-47.006,71.393-9.454,125.566
		C202.694,268.354,208.813,266.074,208.813,266.074"/>
	<path fill="#FFFFFF" d="M197.131,142.027c0,0-30.688,5.82-55.727-4.137c-29.846,28.352-53.579-0.84-53.579-0.84
		s-22.996,10.797-56.008,4.051c30.23-20.76,68.615-33.025,84.378-32.292C131.952,109.536,133.811,105.321,197.131,142.027"/>
	<path fill="#006838" d="M99.038,117.389c0,1.63,7.495,2.95,16.735,2.95c9.238,0,16.736-1.32,16.736-2.95
		c0-1.633-7.498-2.955-16.736-2.955C106.533,114.434,99.038,115.756,99.038,117.389"/>
	<path fill="#FFF100" d="M120.641,5.576l0.071,114.63c0,0-6.304,0.188-7.249,0.133V5.576c0,0,4.026-3.714,6.436,0"/>
	<path fill="#D6DE23" d="M114.531,150.279l-2.43,116.682l-91.313-0.887c0,0-43.071-52.879,6.877-123.441
		c41.98,3.531,60.155-5.581,60.155-5.581S100.08,150.682,114.531,150.279"/>
</g>
</svg>
