<?xml version="1.0" standalone="no"?>
<!DOCTYPE svg PUBLIC "-//W3C//DTD SVG 20010904//EN"
 "http://www.w3.org/TR/2001/REC-SVG-20010904/DTD/svg10.dtd">
<svg version="1.0" xmlns="http://www.w3.org/2000/svg"
 width="508.000000pt" height="552.000000pt" viewBox="0 0 508.000000 552.000000"
 preserveAspectRatio="xMidYMid meet">
<metadata>
Created by potrace 1.13, written by Peter Selinger 2001-2015
</metadata>
<g transform="translate(0.000000,552.000000) scale(0.100000,-0.100000)skewY(-40)"
fill="#000000" stroke="none">
<path d="M4755 4990 c-22 -11 -43 -27 -48 -35 -4 -8 -13 -15 -19 -15 -6 0 -26
-11 -44 -25 -18 -14 -37 -25 -43 -25 -6 0 -11 -4 -11 -10 0 -5 -25 -24 -55
-41 -30 -17 -55 -34 -55 -38 0 -4 -17 -16 -37 -27 -63 -34 -85 -48 -104 -66
-10 -9 -36 -26 -59 -38 -22 -11 -40 -25 -40 -30 0 -5 -18 -19 -40 -30 -23 -12
-49 -29 -59 -38 -10 -9 -26 -22 -36 -28 -14 -8 -24 -37 -38 -110 -11 -54 -22
-101 -26 -104 -4 -3 -13 -36 -20 -75 -7 -38 -14 -81 -17 -95 -5 -23 -4 -24 9
-7 8 9 17 17 20 17 10 0 111 65 135 88 14 12 30 22 37 22 7 0 18 7 25 15 7 8
16 15 21 15 5 0 9 -399 9 -919 l0 -920 33 -30 c17 -17 38 -31 45 -31 6 0 12
-4 12 -10 0 -5 11 -10 25 -10 14 0 25 5 25 10 0 6 7 10 16 10 8 0 29 13 45 29
l29 29 0 999 c0 549 4 1004 9 1011 4 7 20 20 34 28 62 33 73 41 101 67 16 15
34 27 41 27 7 0 23 10 37 23 27 25 125 87 138 87 4 0 10 6 13 13 3 8 21 21 41
31 46 22 63 72 46 134 -6 24 -18 46 -26 49 -7 3 -14 11 -14 18 0 18 -41 42
-81 49 -23 4 -46 0 -74 -14z"/>
<path d="M3893 4407 c-10 -15 -89 -67 -103 -67 -6 0 -13 -6 -16 -14 -3 -7 -24
-23 -48 -35 -23 -12 -55 -33 -71 -47 -15 -13 -31 -24 -35 -24 -3 0 -17 -55
-30 -122 -12 -68 -26 -125 -29 -128 -10 -8 -33 -131 -26 -138 3 -4 9 -2 13 3
10 14 90 65 101 65 6 0 14 6 18 14 4 8 24 23 44 34 68 38 79 47 79 64 0 9 4
18 9 20 9 3 32 89 63 238 6 30 14 57 18 60 7 5 30 90 24 90 -1 0 -7 -6 -11
-13z"/>
<path d="M3420 4082 c0 -7 -4 -12 -9 -12 -12 0 -113 -61 -126 -77 -5 -6 -30
-23 -55 -36 -41 -23 -46 -30 -54 -73 -5 -27 -12 -51 -16 -54 -10 -7 -63 -280
-56 -287 3 -4 14 0 23 8 10 8 30 21 46 29 15 7 27 17 27 21 0 5 18 18 39 29
84 42 96 68 146 308 4 17 10 32 14 32 8 0 33 111 26 118 -3 3 -5 0 -5 -6z"/>
<path d="M2950 3768 c-14 -13 -36 -29 -50 -37 -14 -7 -34 -19 -45 -25 -11 -6
-32 -21 -45 -34 -14 -13 -39 -30 -55 -38 -29 -13 -31 -20 -49 -117 -10 -56
-22 -104 -25 -107 -8 -5 -42 -173 -36 -178 5 -6 80 40 88 54 4 8 13 14 18 14
6 0 25 11 43 25 18 14 36 25 39 25 21 0 56 52 67 100 7 30 16 57 20 60 4 3 12
30 18 60 7 30 20 92 31 138 10 45 16 82 12 82 -4 0 -18 -10 -31 -22z"/>
<path d="M2485 3455 c-17 -14 -52 -40 -80 -57 -27 -18 -58 -40 -69 -50 -10 -9
-33 -24 -51 -33 -32 -15 -34 -18 -55 -135 -13 -66 -26 -120 -30 -120 -4 0 -10
-19 -13 -42 -4 -24 -9 -57 -13 -75 -6 -29 -4 -31 15 -26 11 3 31 15 44 27 21
19 123 86 132 86 9 0 65 59 65 69 0 6 4 11 8 11 5 0 14 26 21 58 32 148 55
237 61 242 4 3 10 20 13 38 8 40 -7 42 -48 7z"/>
<path d="M2036 3149 c-16 -9 -32 -22 -35 -27 -3 -5 -22 -19 -42 -30 -67 -37
-82 -47 -107 -69 -14 -13 -29 -23 -33 -23 -5 0 -9 -16 -9 -35 0 -19 -4 -35 -9
-35 -5 0 -21 -64 -35 -142 -15 -79 -29 -151 -32 -160 -7 -24 7 -22 36 5 23 21
39 31 103 64 15 8 27 18 27 22 0 4 15 16 33 26 32 17 34 22 67 166 18 82 37
149 40 149 6 0 31 103 27 106 -1 1 -15 -7 -31 -17z"/>
<path d="M1570 2833 c-24 -14 -49 -31 -55 -37 -5 -7 -31 -25 -57 -40 -27 -15
-48 -31 -48 -36 0 -6 -7 -10 -15 -10 -24 0 -42 -40 -56 -122 -7 -43 -16 -78
-20 -78 -3 0 -9 -17 -13 -37 -3 -21 -12 -72 -20 -113 -14 -73 -14 -74 4 -52
10 12 21 22 23 22 9 0 112 64 122 77 6 6 26 20 45 30 31 17 37 27 53 94 11 41
23 76 28 77 5 2 9 10 9 18 0 8 11 62 26 120 14 59 24 108 22 109 -2 2 -23 -8
-48 -22z"/>
<path d="M1169 2563 c-5 -10 -77 -57 -101 -66 -10 -3 -18 -10 -18 -15 0 -5
-19 -19 -43 -31 -24 -12 -57 -34 -73 -48 -16 -14 -49 -37 -73 -51 -24 -14 -55
-36 -69 -49 -14 -13 -30 -23 -37 -23 -7 0 -24 -11 -39 -25 -15 -14 -29 -25
-31 -25 -9 0 -111 -66 -118 -77 -4 -7 -30 -24 -57 -39 -28 -15 -50 -31 -50
-35 0 -4 -13 -15 -30 -23 -17 -9 -44 -23 -60 -32 -16 -8 -30 -19 -30 -23 0 -4
-27 -22 -60 -41 -33 -19 -60 -38 -60 -42 0 -5 -8 -12 -17 -16 -50 -20 -90 -57
-101 -93 -21 -67 -12 -115 27 -147 49 -39 143 -46 189 -13 17 11 35 21 41 21
6 0 11 4 11 10 0 5 25 24 55 41 30 17 55 34 55 39 0 4 15 15 33 23 18 9 45 26
59 39 26 24 48 38 111 72 20 11 37 23 37 27 0 4 25 21 55 38 30 17 55 36 55
41 0 6 5 10 12 10 6 0 26 11 44 25 18 14 36 25 41 25 5 0 17 10 28 23 20 22
20 19 25 -928 4 -754 8 -954 18 -965 7 -8 18 -23 25 -33 16 -23 73 -36 111
-26 16 5 40 21 52 36 l23 28 1 1028 c0 678 -3 1027 -10 1027 -5 0 -10 -5 -10
-10 0 -6 -10 -15 -22 -20 -13 -5 -36 -18 -53 -29 -16 -12 -33 -21 -37 -21 -11
0 -10 37 0 42 8 3 73 260 72 286 0 6 4 12 9 12 5 0 11 12 14 28 5 26 3 41 -4
25z"/>
</g>
</svg>
