<?xml version="1.0" encoding="utf-8"?>
<!-- Generator: Adobe Illustrator 16.0.0, SVG Export Plug-In . SVG Version: 6.00 Build 0)  -->
<!DOCTYPE svg PUBLIC "-//W3C//DTD SVG 1.1//EN" "http://www.w3.org/Graphics/SVG/1.1/DTD/svg11.dtd">
<svg version="1.1" id="Layer_1" xmlns="http://www.w3.org/2000/svg" xmlns:xlink="http://www.w3.org/1999/xlink" x="0px" y="0px"
	 width="23px" height="132px" viewBox="0 0 23 132" enable-background="new 0 0 23 132" xml:space="preserve">
<polygon fill="#FFFFFF" points="21.061,82.646 19.569,88.163 13.78,88.163 15.27,82.646 "/>
<polyline fill="#FFFFFF" points="10.346,131.353 12.854,123.08 7.048,123.08 3.749,131.353 "/>
<polygon fill="#BCBEC0" points="13.78,88.163 15.27,82.646 17.248,82.646 15.894,88.163 "/>
<rect x="3.749" y="75.384" fill="#FFFFFF" width="6.597" height="55.969"/>
<rect x="3.749" y="75.384" fill="#BCBEC0" width="3.299" height="55.969"/>
<rect x="15.27" y="24.084" fill="#FFFFFF" width="5.791" height="58.561"/>
<rect x="15.27" y="26.675" fill="#BCBEC0" width="1.979" height="55.97"/>
<rect x="2.674" y="52.995" fill="#F49D2A" width="9.327" height="25.586"/>
<polygon fill="#FFCE00" points="12.001,52.995 21.326,1.556 12.001,1.556 2.674,52.995 "/>
<polyline fill="#ED9F14" points="12.001,78.787 21.061,27.482 21.326,1.181 12.001,53.202 "/>
<polygon fill="#020201" points="4.345,43.781 4.164,44.777 13.511,44.777 13.671,43.781 "/>
<polygon fill="#231F20" points="12.037,78.581 13.511,44.777 13.671,43.781 12.498,76.419 "/>
<polygon fill="#020201" points="6.5,31.752 6.319,32.748 15.666,32.748 15.826,31.752 "/>
<polygon fill="#231F20" points="15.666,32.748 13.417,70.769 13.75,68.882 15.826,31.752 "/>
<polygon fill="#020201" points="8.581,19.752 8.4,20.748 17.747,20.748 17.907,19.752 "/>
<polygon fill="#020201" points="17.747,20.748 15.548,58.701 15.826,57.125 17.907,19.752 "/>
<polygon fill="#020201" points="10.975,7.252 10.794,8.248 20.141,8.248 20.301,7.252 "/>
<polygon fill="#020201" points="20.141,8.248 17.833,45.76 18,44.814 20.301,7.252 "/>
</svg>
