<?xml version="1.0" encoding="utf-8"?>
<!-- Generator: Adobe Illustrator 16.0.0, SVG Export Plug-In . SVG Version: 6.00 Build 0)  -->
<!DOCTYPE svg PUBLIC "-//W3C//DTD SVG 1.1//EN" "http://www.w3.org/Graphics/SVG/1.1/DTD/svg11.dtd">
<svg version="1.1" id="Layer_1" xmlns="http://www.w3.org/2000/svg" xmlns:xlink="http://www.w3.org/1999/xlink" x="0px" y="0px"
	 width="500px" height="200px" viewBox="0 0 500 200" enable-background="new 0 0 500 200" xml:space="preserve">
<polygon fill="#1267A9" points="16.338,4.257 16.338,136.732 253.33,199.951 253.163,4.257 "/>
<g>
	<g>
		<g>
			<g>
				<g>
					
						<rect x="29.253" y="130.447" transform="matrix(0.2538 -0.9673 0.9673 0.2538 -105.8715 128.1871)" fill="#FFFFFF" width="1.778" height="4.524"/>
					
						<rect x="35.768" y="132.157" transform="matrix(0.2542 -0.9672 0.9672 0.2542 -102.6639 135.708)" fill="#FFFFFF" width="1.777" height="4.523"/>
					
						<rect x="42.282" y="133.867" transform="matrix(0.2542 -0.9672 0.9672 0.2542 -99.46 143.2835)" fill="#FFFFFF" width="1.777" height="4.523"/>
					
						<rect x="48.809" y="135.581" transform="matrix(0.2539 -0.9672 0.9672 0.2539 -96.2457 150.9136)" fill="#FFFFFF" width="1.777" height="4.522"/>
					
						<rect x="55.312" y="137.29" transform="matrix(0.2536 -0.9673 0.9673 0.2536 -93.0413 158.5214)" fill="#FFFFFF" width="1.779" height="4.523"/>
					
						<rect x="61.828" y="139.001" transform="matrix(0.2542 -0.9672 0.9672 0.2542 -89.8473 166.0172)" fill="#FFFFFF" width="1.777" height="4.524"/>
					
						<rect x="68.355" y="140.714" transform="matrix(0.2539 -0.9672 0.9672 0.2539 -86.6265 173.6485)" fill="#FFFFFF" width="1.777" height="4.522"/>
				</g>
			</g>
			<g>
				<g>
					
						<rect x="74.872" y="142.423" transform="matrix(0.2539 -0.9672 0.9672 0.2539 -83.4187 181.2269)" fill="#FFFFFF" width="1.777" height="4.523"/>
					
						<rect x="81.373" y="144.134" transform="matrix(0.2542 -0.9672 0.9672 0.2542 -80.2334 188.7485)" fill="#FFFFFF" width="1.777" height="4.523"/>
					
						<rect x="87.888" y="145.844" transform="matrix(0.2542 -0.9672 0.9672 0.2542 -77.0293 196.3253)" fill="#FFFFFF" width="1.777" height="4.523"/>
					
						<rect x="94.404" y="147.556" transform="matrix(0.2536 -0.9673 0.9673 0.2536 -73.7946 203.9965)" fill="#FFFFFF" width="1.779" height="4.522"/>
					
						<rect x="100.919" y="149.267" transform="matrix(0.2538 -0.9673 0.9673 0.2538 -70.5958 211.5519)" fill="#FFFFFF" width="1.778" height="4.523"/>
					
						<rect x="107.446" y="150.983" transform="matrix(0.2539 -0.9672 0.9672 0.2539 -67.393 219.1236)" fill="#FFFFFF" width="1.779" height="4.523"/>
					
						<rect x="113.963" y="152.688" transform="matrix(0.2539 -0.9672 0.9672 0.2539 -64.1805 226.6961)" fill="#FFFFFF" width="1.777" height="4.522"/>
				</g>
			</g>
			<g>
				<g>
					
						<rect x="120.48" y="154.398" transform="matrix(0.254 -0.9672 0.9672 0.254 -60.9836 234.2491)" fill="#FFFFFF" width="1.776" height="4.523"/>
					
						<rect x="126.979" y="156.109" transform="matrix(0.2542 -0.9672 0.9672 0.2542 -57.8012 241.7884)" fill="#FFFFFF" width="1.777" height="4.523"/>
					
						<rect x="133.507" y="157.827" transform="matrix(0.2542 -0.9672 0.9672 0.2542 -54.5926 249.3836)" fill="#FFFFFF" width="1.777" height="4.523"/>
					
						<rect x="140.01" y="159.533" transform="matrix(0.2538 -0.9673 0.9673 0.2538 -51.354 257.0242)" fill="#FFFFFF" width="1.778" height="4.522"/>
					
						<rect x="146.541" y="161.239" transform="matrix(0.2539 -0.9672 0.9672 0.2539 -48.1456 264.5869)" fill="#FFFFFF" width="1.777" height="4.523"/>
					
						<rect x="153.04" y="162.953" transform="matrix(0.2542 -0.9672 0.9672 0.2542 -44.9825 272.0983)" fill="#FFFFFF" width="1.777" height="4.523"/>
					
						<rect x="159.572" y="164.662" transform="matrix(0.254 -0.9672 0.9672 0.254 -41.7494 279.7148)" fill="#FFFFFF" width="1.776" height="4.522"/>
				</g>
			</g>
			<g>
				<g>
					
						<rect x="166.087" y="166.371" transform="matrix(0.2539 -0.9672 0.9672 0.2539 -38.5259 287.3214)" fill="#FFFFFF" width="1.777" height="4.523"/>
					
						<rect x="172.603" y="168.082" transform="matrix(0.2539 -0.9672 0.9672 0.2539 -35.3196 294.8999)" fill="#FFFFFF" width="1.777" height="4.523"/>
					
						<rect x="179.098" y="169.798" transform="matrix(0.2542 -0.9672 0.9672 0.2542 -32.167 302.4061)" fill="#FFFFFF" width="1.777" height="4.523"/>
					
						<rect x="185.635" y="171.503" transform="matrix(0.2539 -0.9672 0.9672 0.2539 -28.9048 310.0568)" fill="#FFFFFF" width="1.777" height="4.522"/>
					
						<rect x="192.149" y="173.213" transform="matrix(0.2539 -0.9672 0.9672 0.2539 -25.6989 317.6336)" fill="#FFFFFF" width="1.777" height="4.523"/>
					
						<rect x="198.645" y="174.93" transform="matrix(0.2544 -0.9671 0.9671 0.2544 -22.5914 325.0798)" fill="#FFFFFF" width="1.777" height="4.523"/>
					
						<rect x="205.16" y="176.642" transform="matrix(0.2538 -0.9673 0.9673 0.2538 -19.2856 332.8088)" fill="#FFFFFF" width="1.778" height="4.522"/>
				</g>
			</g>
			<g>
				<g>
					
						<rect x="211.677" y="178.353" transform="matrix(0.2538 -0.9673 0.9673 0.2538 -16.0776 340.3889)" fill="#FFFFFF" width="1.778" height="4.523"/>
					
						<rect x="218.21" y="180.067" transform="matrix(0.254 -0.9672 0.9672 0.254 -12.904 347.9255)" fill="#FFFFFF" width="1.778" height="4.523"/>
					
						<rect x="224.703" y="181.774" transform="matrix(0.2542 -0.9672 0.9672 0.2542 -9.7361 355.4462)" fill="#FFFFFF" width="1.777" height="4.523"/>
					
						<rect x="231.242" y="183.477" transform="matrix(0.2539 -0.9672 0.9672 0.2539 -6.4586 363.1038)" fill="#FFFFFF" width="1.777" height="4.522"/>
					
						<rect x="237.757" y="185.188" transform="matrix(0.2539 -0.9672 0.9672 0.2539 -3.2527 370.6818)" fill="#FFFFFF" width="1.777" height="4.523"/>
					
						<rect x="244.25" y="186.907" transform="matrix(0.2542 -0.9672 0.9672 0.2542 -0.1216 378.1793)" fill="#FFFFFF" width="1.777" height="4.523"/>
					
						<rect x="250.784" y="188.62" transform="matrix(0.2551 -0.9669 0.9669 0.2551 2.9127 385.5434)" fill="#FFFFFF" width="1.777" height="4.522"/>
				</g>
			</g>
		</g>
	</g>
</g>
<g>
	<g>
		<g>
			<g>
				<rect x="27.053" y="85.066" fill="#FFFFFF" width="1.777" height="4.65"/>
				<rect x="27.053" y="91.991" fill="#FFFFFF" width="1.777" height="4.65"/>
				<rect x="27.053" y="98.916" fill="#FFFFFF" width="1.777" height="4.65"/>
				<rect x="27.053" y="105.843" fill="#FFFFFF" width="1.777" height="4.649"/>
				<rect x="27.053" y="112.768" fill="#FFFFFF" width="1.777" height="4.649"/>
				<rect x="27.053" y="119.693" fill="#FFFFFF" width="1.777" height="4.649"/>
				<rect x="27.053" y="126.618" fill="#FFFFFF" width="1.777" height="4.649"/>
			</g>
		</g>
	</g>
</g>
<polygon fill="#1267A9" points="488,4.257 488,136.732 251.008,199.951 251.174,4.257 "/>
<g>
	<g>
		<g>
			<g>
				<g>
					
						<rect x="474.315" y="129.432" transform="matrix(0.2554 0.9668 -0.9668 0.2554 481.1314 -361.3934)" fill="#FFFFFF" width="1.778" height="4.501"/>
					
						<rect x="467.833" y="131.141" transform="matrix(0.2554 0.9668 -0.9668 0.2554 477.9583 -353.8542)" fill="#FFFFFF" width="1.778" height="4.501"/>
					
						<rect x="461.318" y="132.842" transform="matrix(0.2551 0.9669 -0.9669 0.2551 474.9395 -346.2835)" fill="#FFFFFF" width="1.777" height="4.502"/>
					
						<rect x="454.836" y="134.552" transform="matrix(0.2549 0.967 -0.967 0.2549 471.8318 -338.7401)" fill="#FFFFFF" width="1.777" height="4.502"/>
					
						<rect x="448.395" y="136.243" transform="matrix(0.2549 0.967 -0.967 0.2549 468.6675 -331.2516)" fill="#FFFFFF" width="1.777" height="4.501"/>
					
						<rect x="441.913" y="137.956" transform="matrix(0.2549 0.967 -0.967 0.2549 465.4935 -323.7075)" fill="#FFFFFF" width="1.777" height="4.501"/>
					
						<rect x="435.43" y="139.696" transform="matrix(0.2554 0.9668 -0.9668 0.2554 462.1022 -316.1563)" fill="#FFFFFF" width="1.778" height="4.5"/>
				</g>
			</g>
			<g>
				<g>
					
						<rect x="428.948" y="141.406" transform="matrix(0.2554 0.9668 -0.9668 0.2554 458.9297 -308.6158)" fill="#FFFFFF" width="1.778" height="4.501"/>
					
						<rect x="422.467" y="143.117" transform="matrix(0.2554 0.9668 -0.9668 0.2554 455.7592 -301.0761)" fill="#FFFFFF" width="1.778" height="4.501"/>
					
						<rect x="415.954" y="144.816" transform="matrix(0.2549 0.967 -0.967 0.2549 452.7862 -293.4952)" fill="#FFFFFF" width="1.777" height="4.501"/>
					
						<rect x="409.505" y="146.538" transform="matrix(0.2554 0.9668 -0.9668 0.2554 449.4149 -285.997)" fill="#FFFFFF" width="1.778" height="4.5"/>
					
						<rect x="403.028" y="148.222" transform="matrix(0.2544 0.9671 -0.9671 0.2544 446.6758 -278.4362)" fill="#FFFFFF" width="1.777" height="4.5"/>
					
						<rect x="396.546" y="149.933" transform="matrix(0.2544 0.9671 -0.9671 0.2544 443.4984 -270.8919)" fill="#FFFFFF" width="1.777" height="4.5"/>
					
						<rect x="390.044" y="151.646" transform="matrix(0.2557 0.9668 -0.9668 0.2557 439.746 -263.391)" fill="#FFFFFF" width="1.776" height="4.5"/>
				</g>
			</g>
			<g>
				<g>
					
						<rect x="383.586" y="153.354" transform="matrix(0.2551 0.9669 -0.9669 0.2551 436.8679 -255.8414)" fill="#FFFFFF" width="1.777" height="4.502"/>
					
						<rect x="377.081" y="155.068" transform="matrix(0.2557 0.9668 -0.9668 0.2557 433.4063 -248.3127)" fill="#FFFFFF" width="1.776" height="4.501"/>
					
						<rect x="370.625" y="156.776" transform="matrix(0.2551 0.9669 -0.9669 0.2551 430.5215 -240.7601)" fill="#FFFFFF" width="1.777" height="4.502"/>
					
						<rect x="364.137" y="158.513" transform="matrix(0.256 0.9667 -0.9667 0.256 427.0048 -233.2517)" fill="#FFFFFF" width="1.778" height="4.501"/>
					
						<rect x="357.657" y="160.223" transform="matrix(0.2554 0.9668 -0.9668 0.2554 424.0423 -225.6792)" fill="#FFFFFF" width="1.778" height="4.501"/>
					
						<rect x="351.181" y="161.91" transform="matrix(0.2549 0.967 -0.967 0.2549 421.055 -218.1258)" fill="#FFFFFF" width="1.777" height="4.501"/>
					
						<rect x="344.695" y="163.646" transform="matrix(0.2553 0.9669 -0.9669 0.2553 417.7529 -210.5899)" fill="#FFFFFF" width="1.779" height="4.5"/>
				</g>
			</g>
			<g>
				<g>
					
						<rect x="338.188" y="165.343" transform="matrix(0.2556 0.9668 -0.9668 0.2556 414.444 -203.0546)" fill="#FFFFFF" width="1.777" height="4.502"/>
					
						<rect x="331.739" y="167.043" transform="matrix(0.2549 0.967 -0.967 0.2549 411.5322 -195.5015)" fill="#FFFFFF" width="1.777" height="4.501"/>
					
						<rect x="325.258" y="168.754" transform="matrix(0.2549 0.967 -0.967 0.2549 408.3586 -187.96)" fill="#FFFFFF" width="1.777" height="4.501"/>
					
						<rect x="318.77" y="170.488" transform="matrix(0.2554 0.9668 -0.9668 0.2554 405.0128 -180.4407)" fill="#FFFFFF" width="1.778" height="4.5"/>
					
						<rect x="312.289" y="172.198" transform="matrix(0.2554 0.9668 -0.9668 0.2554 401.8411 -172.9013)" fill="#FFFFFF" width="1.778" height="4.501"/>
					
						<rect x="305.807" y="173.909" transform="matrix(0.2554 0.9668 -0.9668 0.2554 398.669 -165.3605)" fill="#FFFFFF" width="1.778" height="4.5"/>
					
						<rect x="299.327" y="175.62" transform="matrix(0.2553 0.9669 -0.9669 0.2553 395.5459 -157.8087)" fill="#FFFFFF" width="1.779" height="4.5"/>
				</g>
			</g>
			<g>
				<g>
					
						<rect x="292.853" y="177.31" transform="matrix(0.2549 0.967 -0.967 0.2549 392.4867 -150.2519)" fill="#FFFFFF" width="1.777" height="4.5"/>
					
						<rect x="286.374" y="179.02" transform="matrix(0.2551 0.9669 -0.9669 0.2551 389.2681 -142.7252)" fill="#FFFFFF" width="1.777" height="4.502"/>
					
						<rect x="279.884" y="180.752" transform="matrix(0.2548 0.967 -0.967 0.2548 386.1977 -135.1317)" fill="#FFFFFF" width="1.778" height="4.501"/>
					
						<rect x="273.402" y="182.464" transform="matrix(0.2553 0.9669 -0.9669 0.2553 382.856 -127.6455)" fill="#FFFFFF" width="1.779" height="4.5"/>
					
						<rect x="266.912" y="184.151" transform="matrix(0.2556 0.9668 -0.9668 0.2556 379.5685 -120.1443)" fill="#FFFFFF" width="1.777" height="4.501"/>
					
						<rect x="260.431" y="185.863" transform="matrix(0.2556 0.9668 -0.9668 0.2556 376.398 -112.6049)" fill="#FFFFFF" width="1.777" height="4.5"/>
					
						<rect x="253.952" y="187.576" transform="matrix(0.2554 0.9668 -0.9668 0.2554 373.2731 -105.0494)" fill="#FFFFFF" width="1.778" height="4.5"/>
				</g>
			</g>
		</g>
	</g>
</g>
<g>
	<g>
		<g>
			<g>
				<rect x="476.457" y="85.066" fill="#FFFFFF" width="1.777" height="4.65"/>
				<rect x="476.457" y="91.991" fill="#FFFFFF" width="1.777" height="4.65"/>
				<rect x="476.457" y="98.916" fill="#FFFFFF" width="1.777" height="4.65"/>
				<rect x="476.457" y="105.843" fill="#FFFFFF" width="1.777" height="4.649"/>
				<rect x="476.457" y="112.768" fill="#FFFFFF" width="1.777" height="4.649"/>
				<rect x="476.457" y="119.693" fill="#FFFFFF" width="1.777" height="4.649"/>
				<rect x="476.457" y="126.618" fill="#FFFFFF" width="1.777" height="4.649"/>
			</g>
		</g>
	</g>
</g>
</svg>
