<?xml version="1.0" encoding="utf-8"?>
<!-- Generator: Adobe Illustrator 16.0.0, SVG Export Plug-In . SVG Version: 6.00 Build 0)  -->
<!DOCTYPE svg PUBLIC "-//W3C//DTD SVG 1.1//EN" "http://www.w3.org/Graphics/SVG/1.1/DTD/svg11.dtd">
<svg version="1.1" id="Layer_1" xmlns="http://www.w3.org/2000/svg" xmlns:xlink="http://www.w3.org/1999/xlink" x="0px" y="0px"
	 width="160px" height="300px" viewBox="0 0 160 300" enable-background="new 0 0 160 300" xml:space="preserve">
<path fill="#30BDD8" d="M86.174,294.514l-25.421,1.541l-20.249-0.365V193.65l-26.372-14.68l-1.172-12.962
	c0-9.704,14.604-13.821,14.604-13.821l-1.472-15.29h-7.646V112.98c1.961-30.189,42.304-44.697,42.304-44.697V36.524h25.33
	L86.174,294.514z"/>
<path fill="#FFFFFF" d="M14.132,177.479c0,0,26.271-2.939,26.271,9.998v108.213H16.879h-2.745"/>
<rect x="26.093" y="136.897" fill="#1999C4" width="60.079" height="15.29"/>
<path fill="#FFFFFF" d="M86.131,296.055h-25.38l0.041-109.757c-0.588-8.821,5.293-9.998,5.293-9.998h20.046V296.055z"/>
<g>
	<path fill="#1999C4" d="M85.964,36.524h25.33v31.759c0,0,40.343,14.508,42.304,44.697v23.917h-7.646l-1.472,15.291
		c0,0,14.604,4.117,14.604,13.821v9.704l-27.544,17.938v102.039l-20.249,0.365l-25.421-1.541L85.964,36.524z"/>
	<rect x="54.5" y="39.858" fill="#ACD7E8" width="65.869" height="12.351"/>
	<rect x="57.146" y="42.505" fill="#F4F6FB" width="60.281" height="7.352"/>
	<rect x="54.5" y="5.159" fill="#AAD5D9" width="67.98" height="31.367"/>
	<rect x="58.616" y="5.159" fill="#FCFBF7" width="3.823" height="20.29"/>
	<rect x="68.026" y="5.159" fill="#FCFBF7" width="3.823" height="20.29"/>
	<rect x="77.437" y="5.159" fill="#FCFBF7" width="3.822" height="20.29"/>
	<rect x="86.846" y="5.159" fill="#FCFBF7" width="3.823" height="20.29"/>
	<rect x="96.256" y="5.159" fill="#FCFBF7" width="3.823" height="20.29"/>
	<rect x="105.666" y="5.159" fill="#FCFBF7" width="3.822" height="20.29"/>
	<rect x="115.076" y="5.159" fill="#FCFBF7" width="3.822" height="20.29"/>
	<path fill="#9DD3F2" d="M85.914,176.3h20.046c0,0,5.881,1.177,5.293,9.998l0.041,109.757h-25.38V176.3z"/>
	<path fill="#B0DBF5" d="M157.911,295.689h-2.745h-23.523V187.477c0-12.938,26.271-9.998,26.271-9.998"/>
	<rect x="85.873" y="136.897" fill="#2AB9D7" width="60.079" height="15.291"/>
	<rect x="63.812" y="36.526" fill="#30BDD8" width="22.152" height="3.332"/>
</g>
</svg>
