<?xml version="1.0" encoding="utf-8"?>
<!-- Generator: Adobe Illustrator 16.0.0, SVG Export Plug-In . SVG Version: 6.00 Build 0)  -->
<!DOCTYPE svg PUBLIC "-//W3C//DTD SVG 1.0//EN" "http://www.w3.org/TR/2001/REC-SVG-20010904/DTD/svg10.dtd">
<svg version="1.0" id="Layer_1" xmlns="http://www.w3.org/2000/svg" xmlns:xlink="http://www.w3.org/1999/xlink" x="0px" y="0px"
	 width="160px" height="300px" viewBox="0 0 160 300" enable-background="new 0 0 160 300" xml:space="preserve">
<g>
	<path fill="#30BDD8" d="M38.914,296.057V85.944c0,0,13.136-24.067,24.701-15.388V52.208h22.349v83.847l-0.091,160H38.914V296.057z"
		/>
	<path fill="#1999C4" d="M85.964,36.524h25.33v31.759c0,0,40.343,14.508,42.304,44.697v23.917h-7.646l-1.472,15.291
		c0,0,14.605,4.117,14.605,13.821v9.704l-27.544,17.938v102.039l-20.249,0.365l-25.421-1.541L85.964,36.524z"/>
	<rect x="54.5" y="39.858" fill="#ACD7E8" width="65.869" height="12.351"/>
	<rect x="57.146" y="42.505" fill="#F4F6FB" width="60.281" height="7.352"/>
	<rect x="54.5" y="5.159" fill="#AAD5D9" width="67.98" height="31.367"/>
	<rect x="58.616" y="5.159" fill="#FCFBF7" width="3.823" height="20.29"/>
	<rect x="68.026" y="5.159" fill="#FCFBF7" width="3.823" height="20.29"/>
	<rect x="77.437" y="5.159" fill="#FCFBF7" width="3.822" height="20.29"/>
	<rect x="86.846" y="5.159" fill="#FCFBF7" width="3.823" height="20.29"/>
	<rect x="96.256" y="5.159" fill="#FCFBF7" width="3.823" height="20.29"/>
	<rect x="105.666" y="5.159" fill="#FCFBF7" width="3.822" height="20.29"/>
	<rect x="115.076" y="5.159" fill="#FCFBF7" width="3.822" height="20.29"/>
	<path fill="#9DD3F2" d="M61.263,293.925V193.357c0,0-5.293-14.703,11.175-17.057h33.522c0,0,5.881,1.176,5.293,9.998l0.041,109.756
		"/>
	<path fill="#B0DBF5" d="M157.911,295.689h-2.745h-23.524V187.477c0-12.938,26.271-9.998,26.271-9.998"/>
	<rect x="85.873" y="136.897" fill="#2AB9D7" width="60.079" height="15.291"/>
	<rect x="38.914" y="136.897" fill="#1999C4" width="46.959" height="15.291"/>
	<rect x="63.812" y="36.526" fill="#30BDD8" width="22.152" height="3.332"/>
	<path fill="#FFFFFF" d="M90.669,295.689H58.616l-0.107-99.975v-2.969c0,0-3.206-21.592,27.364-16.438v119.379"/>
</g>
<polyline fill="#A6E0F3" points="27.602,296.057 38.414,296.057 38.414,187.833 1,213 0.5,258.447 27.602,296.057 "/>
<polygon fill="#87C9CB" points="12.02,205.686 1,213 1,258.447 12,273.712 "/>
</svg>
