<?xml version="1.0" encoding="utf-8"?>
<!-- Generator: Adobe Illustrator 16.0.0, SVG Export Plug-In . SVG Version: 6.00 Build 0)  -->
<!DOCTYPE svg PUBLIC "-//W3C//DTD SVG 1.1//EN" "http://www.w3.org/Graphics/SVG/1.1/DTD/svg11.dtd">
<svg version="1.1" id="Layer_1" xmlns="http://www.w3.org/2000/svg" xmlns:xlink="http://www.w3.org/1999/xlink" x="0px" y="0px"
	 width="200px" height="300px" viewBox="0 0 200 300" enable-background="new 0 0 200 300" xml:space="preserve">
<path opacity="0.2" fill="#494847" enable-background="new    " d="M162.827,238.65c0,2.832-32.742,5.128-73.133,5.128
	c-40.39,0-73.133-2.296-73.133-5.128c0-2.833,54.595-5.127,73.133-5.127C130.085,233.523,162.827,235.817,162.827,238.65z"/>
<polygon fill="#F4F4F4" points="53.162,243.778 142.752,243.778 138.381,129.06 59.717,129.06 69.549,152.004 "/>
<polygon fill="#FFFFFF" points="142.752,243.778 139.475,130.159 95.771,130.159 95.771,155.827 95.771,243.778 "/>
<path fill="#DD112C" d="M187,155.827H16.562c0-47.064,38.154-85.218,85.22-85.218C148.845,70.609,187,108.763,187,155.827z"/>
<path fill="#FFFFFF" d="M172.796,155.827c0-8.092-6.556-14.648-14.646-14.648c-8.092,0-14.649,6.559-14.649,14.648H172.796z"/>
<circle fill="#FFFFFF" cx="107.243" cy="116.497" r="26.767"/>
<path fill="#FFFFFF" d="M64.224,91.85c0,10.973-8.897,19.871-19.872,19.871c-4.773,0-9.154-1.683-12.581-4.489
	c1.57-5.572,21.45-24.108,29.056-26.494C62.972,83.91,64.224,87.734,64.224,91.85z"/>
</svg>
