<?xml version="1.0" encoding="utf-8"?>
<!-- Generator: Adobe Illustrator 16.0.0, SVG Export Plug-In . SVG Version: 6.00 Build 0)  -->
<!DOCTYPE svg PUBLIC "-//W3C//DTD SVG 1.1//EN" "http://www.w3.org/Graphics/SVG/1.1/DTD/svg11.dtd">
<svg version="1.1" id="Layer_1" xmlns="http://www.w3.org/2000/svg" xmlns:xlink="http://www.w3.org/1999/xlink" x="0px" y="0px"
	 width="230px" height="80px" viewBox="0 0 230 80" enable-background="new 0 0 230 80" xml:space="preserve">
<circle fill="#CCCCCE" cx="15.5" cy="42.326" r="4.857"/>
<g>
	<path fill="#FFFFFF" d="M20.372,42.327c0,0-0.012,0.119-0.033,0.341c-0.042,0.219-0.002,0.557-0.157,0.952
		c-0.066,0.198-0.118,0.427-0.214,0.659c-0.119,0.223-0.249,0.463-0.387,0.72c-0.164,0.239-0.375,0.47-0.578,0.727
		c-0.232,0.229-0.506,0.442-0.782,0.672c-0.614,0.366-1.333,0.73-2.166,0.797c-0.842,0.149-1.691-0.036-2.556-0.355
		c-0.834-0.373-1.567-0.997-2.129-1.772c-0.525-0.813-0.803-1.753-0.845-2.754c0.027-0.936,0.296-1.938,0.815-2.75
		c0.553-0.792,1.294-1.425,2.136-1.808c0.85-0.322,1.756-0.532,2.588-0.37c0.823,0.07,1.584,0.45,2.19,0.823
		c0.277,0.234,0.553,0.452,0.785,0.685c0.202,0.262,0.412,0.497,0.574,0.74c0.136,0.26,0.263,0.504,0.38,0.729
		c0.093,0.235,0.143,0.465,0.206,0.664c0.15,0.396,0.106,0.739,0.146,0.958C20.362,42.207,20.372,42.327,20.372,42.327z
		 M20.342,42.325c0,0-0.014-0.117-0.04-0.338c-0.047-0.217-0.014-0.555-0.176-0.94c-0.07-0.195-0.125-0.418-0.225-0.645
		c-0.122-0.216-0.254-0.45-0.396-0.699c-0.166-0.232-0.379-0.453-0.582-0.7c-0.233-0.218-0.507-0.417-0.78-0.633
		c-0.62-0.34-1.287-0.663-2.109-0.707c-0.793-0.117-1.637,0.056-2.438,0.364c-0.792,0.36-1.483,0.958-2.022,1.691
		c-0.5,0.776-0.761,1.647-0.811,2.619c0.034,0.905,0.284,1.84,0.778,2.615c0.53,0.748,1.228,1.358,2.028,1.728
		c0.787,0.312,1.687,0.508,2.47,0.379c0.812-0.046,1.521-0.386,2.134-0.731c0.275-0.22,0.551-0.423,0.784-0.645
		c0.202-0.252,0.414-0.478,0.578-0.713c0.139-0.254,0.269-0.49,0.389-0.709c0.097-0.229,0.149-0.454,0.217-0.649
		c0.158-0.387,0.122-0.729,0.165-0.946C20.33,42.443,20.342,42.325,20.342,42.325z"/>
</g>
<line fill="none" stroke="#EFEFEF" stroke-miterlimit="10" x1="16.968" y1="38.374" x2="14" y2="46.197"/>
<circle fill="#CCCCCE" cx="218.608" cy="42.326" r="4.857"/>
<g>
	<path fill="#FFFFFF" d="M223.479,42.327c0,0-0.011,0.119-0.032,0.341c-0.042,0.219-0.002,0.557-0.157,0.952
		c-0.066,0.198-0.118,0.427-0.215,0.659c-0.119,0.223-0.249,0.463-0.387,0.72c-0.164,0.239-0.375,0.47-0.578,0.727
		c-0.232,0.229-0.506,0.442-0.782,0.672c-0.613,0.366-1.332,0.73-2.166,0.797c-0.842,0.149-1.691-0.036-2.556-0.355
		c-0.834-0.373-1.567-0.997-2.129-1.772c-0.525-0.813-0.803-1.753-0.846-2.754c0.027-0.936,0.296-1.938,0.814-2.75
		c0.554-0.792,1.295-1.425,2.137-1.808c0.85-0.322,1.755-0.532,2.588-0.37c0.823,0.07,1.584,0.45,2.189,0.823
		c0.277,0.235,0.554,0.452,0.785,0.685c0.202,0.262,0.412,0.497,0.574,0.74c0.135,0.26,0.262,0.504,0.38,0.729
		c0.093,0.235,0.143,0.465,0.206,0.664c0.15,0.396,0.106,0.739,0.146,0.958C223.47,42.207,223.479,42.327,223.479,42.327z
		 M223.45,42.325c0,0-0.015-0.117-0.04-0.338c-0.047-0.217-0.014-0.555-0.177-0.94c-0.069-0.195-0.125-0.418-0.225-0.645
		c-0.122-0.216-0.254-0.45-0.396-0.699c-0.165-0.232-0.379-0.453-0.581-0.7c-0.233-0.218-0.508-0.417-0.78-0.633
		c-0.62-0.34-1.287-0.663-2.109-0.707c-0.794-0.117-1.637,0.056-2.438,0.364c-0.793,0.36-1.483,0.958-2.022,1.691
		c-0.499,0.776-0.762,1.647-0.812,2.619c0.034,0.905,0.285,1.84,0.779,2.615c0.53,0.748,1.228,1.358,2.027,1.728
		c0.787,0.312,1.687,0.508,2.47,0.379c0.813-0.047,1.522-0.386,2.135-0.731c0.275-0.22,0.551-0.424,0.784-0.645
		c0.202-0.252,0.413-0.478,0.578-0.713c0.139-0.254,0.269-0.49,0.389-0.709c0.097-0.229,0.149-0.454,0.217-0.649
		c0.158-0.387,0.121-0.729,0.165-0.946C223.438,42.443,223.45,42.325,223.45,42.325z"/>
</g>
<line fill="none" stroke="#EFEFEF" stroke-miterlimit="10" x1="220.076" y1="38.374" x2="217.107" y2="46.197"/>
</svg>
