<?xml version="1.0" encoding="utf-8"?>
<!-- Generator: Adobe Illustrator 16.0.0, SVG Export Plug-In . SVG Version: 6.00 Build 0)  -->
<!DOCTYPE svg PUBLIC "-//W3C//DTD SVG 1.0//EN" "http://www.w3.org/TR/2001/REC-SVG-20010904/DTD/svg10.dtd">
<svg version="1.0" id="Layer_1" xmlns="http://www.w3.org/2000/svg" xmlns:xlink="http://www.w3.org/1999/xlink" x="0px" y="0px"
	 width="500px" height="500px" viewBox="0 0 500 500" enable-background="new 0 0 500 500" xml:space="preserve">
<g>
	<path fill="#68442C" d="M7.275,458.961l102.906-290.663c0,0-23.473-149.85,99.297-151.651
		c122.764-1.806,106.515,149.845,106.515,149.845l9.022,54.159l70.411,238.31H7.275z"/>
	<path fill="#FFFFFF" d="M110.182,168.289c0,0-25.674-149.789,99.297-151.651c128.211-1.913,106.815,146.056,106.815,146.056
		l38.828,159.849l-79.944-84.756l-13.539,138.917l-60.283-152.55l-29.984,109.222l-39.723-95.588l-68.537,63.438l45.572-128.715"/>
	<path fill="#805736" d="M261.643,458.961l58.528-189.683c0,0-13.391-79.432,53.398-83.049
		c66.803-3.608,64.996,75.825,64.996,75.825l54.159,196.907H261.643L261.643,458.961z"/>
	<path fill="#FFFFFF" d="M320.171,269.278c0,0-16.112-79.938,53.398-83.049c72.749-3.238,64.996,75.825,64.996,75.825
		l34.771,126.411l-56.438-83.082l-5.416,92.073l-34.307-84.85l-40.618,92.074l1.806-109.273l-49.61,75.678L320.171,269.278z"/>
	<path fill="#BE1E2D" d="M108.234,147.321c0,0,140.464,16.524,209.355-3.313l-0.714,22.038c0,0-141.013,31.13-207.155-0.997
		C108.007,153.393,108.234,147.321,108.234,147.321"/>
	<path fill="#BE1E2D" d="M319.299,260.765c0,0,103.082,7.784,119.669,0c1.014,4.146,2.061,10.239,2.061,10.239
		s-78.522,9.169-120.857-1.726C319.472,265.842,319.299,260.765,319.299,260.765"/>
</g>
</svg>
