<?xml version="1.0" encoding="utf-8"?>
<!-- Generator: Adobe Illustrator 16.0.0, SVG Export Plug-In . SVG Version: 6.00 Build 0)  -->
<!DOCTYPE svg PUBLIC "-//W3C//DTD SVG 1.0//EN" "http://www.w3.org/TR/2001/REC-SVG-20010904/DTD/svg10.dtd">
<svg version="1.0" id="Layer_1" xmlns="http://www.w3.org/2000/svg" xmlns:xlink="http://www.w3.org/1999/xlink" x="0px" y="0px"
	 width="1920px" height="288px" viewBox="0 0 1920 288" enable-background="new 0 0 1920 288" xml:space="preserve">
<rect x="-0.03" y="7" fill="#2F1C10" width="1921" height="112.082"/>
<polygon fill="#1267A9" points="814.75,9.045 814.75,194.191 981.529,282.545 981.412,9.045 "/>
<g>
	<g>
		<g>
			<g>
				<g>
					
						<rect x="824.978" y="186.583" transform="matrix(0.4621 -0.8868 0.8868 0.4621 276.8442 833.9338)" fill="#FFFFFF" width="1.777" height="4.34"/>
					
						<rect x="830.721" y="189.6" transform="matrix(0.4625 -0.8866 0.8866 0.4625 276.9423 840.3806)" fill="#FFFFFF" width="1.778" height="4.34"/>
					
						<rect x="836.452" y="192.589" transform="matrix(0.4625 -0.8866 0.8866 0.4625 277.3728 847.0674)" fill="#FFFFFF" width="1.778" height="4.34"/>
					
						<rect x="842.172" y="195.55" transform="matrix(0.4623 -0.8867 0.8867 0.4623 277.9891 853.8737)" fill="#FFFFFF" width="1.779" height="4.338"/>
					
						<rect x="847.91" y="198.558" transform="matrix(0.4625 -0.8866 0.8866 0.4625 278.2391 860.4349)" fill="#FFFFFF" width="1.778" height="4.34"/>
					
						<rect x="853.634" y="201.527" transform="matrix(0.4625 -0.8866 0.8866 0.4625 278.6829 867.1053)" fill="#FFFFFF" width="1.778" height="4.34"/>
					
						<rect x="859.366" y="204.516" transform="matrix(0.4625 -0.8866 0.8866 0.4625 279.1139 873.793)" fill="#FFFFFF" width="1.778" height="4.338"/>
				</g>
			</g>
			<g>
				<g>
					
						<rect x="865.097" y="207.504" transform="matrix(0.4623 -0.8867 0.8867 0.4623 279.7159 880.6303)" fill="#FFFFFF" width="1.779" height="4.34"/>
					
						<rect x="870.843" y="210.522" transform="matrix(0.4625 -0.8866 0.8866 0.4625 279.9568 887.1971)" fill="#FFFFFF" width="1.778" height="4.34"/>
					
						<rect x="876.56" y="213.481" transform="matrix(0.4625 -0.8866 0.8866 0.4625 280.4063 893.8564)" fill="#FFFFFF" width="1.778" height="4.34"/>
					
						<rect x="882.292" y="216.47" transform="matrix(0.4621 -0.8868 0.8868 0.4621 281.1702 900.8383)" fill="#FFFFFF" width="1.777" height="4.339"/>
					
						<rect x="888.038" y="219.488" transform="matrix(0.4623 -0.8867 0.8867 0.4623 281.4091 907.4022)" fill="#FFFFFF" width="1.776" height="4.34"/>
					
						<rect x="893.77" y="222.479" transform="matrix(0.4623 -0.8867 0.8867 0.4623 281.84 914.0934)" fill="#FFFFFF" width="1.776" height="4.34"/>
					
						<rect x="899.486" y="225.436" transform="matrix(0.4625 -0.8866 0.8866 0.4625 282.1299 920.608)" fill="#FFFFFF" width="1.778" height="4.339"/>
				</g>
			</g>
			<g>
				<g>
					
						<rect x="905.226" y="228.445" transform="matrix(0.4625 -0.8866 0.8866 0.4625 282.5471 927.3146)" fill="#FFFFFF" width="1.778" height="4.34"/>
					
						<rect x="910.964" y="231.443" transform="matrix(0.4621 -0.8868 0.8868 0.4621 283.3138 934.3198)" fill="#FFFFFF" width="1.777" height="4.34"/>
					
						<rect x="916.607" y="234.396" transform="matrix(0.4628 -0.8865 0.8865 0.4628 283.2078 940.4418)" fill="#FFFFFF" width="1.777" height="4.34"/>
					
						<rect x="922.405" y="237.369" transform="matrix(0.4617 -0.8871 0.8871 0.4617 284.5581 947.9641)" fill="#FFFFFF" width="1.777" height="4.34"/>
					
						<rect x="928.152" y="240.401" transform="matrix(0.4625 -0.8866 0.8866 0.4625 284.2687 954.0668)" fill="#FFFFFF" width="1.778" height="4.34"/>
					
						<rect x="933.884" y="243.39" transform="matrix(0.4625 -0.8866 0.8866 0.4625 284.6992 960.7554)" fill="#FFFFFF" width="1.778" height="4.34"/>
					
						<rect x="939.599" y="246.334" transform="matrix(0.4621 -0.8868 0.8868 0.4621 285.5112 967.7229)" fill="#FFFFFF" width="1.777" height="4.34"/>
				</g>
			</g>
			<g>
				<g>
					
						<rect x="945.331" y="249.322" transform="matrix(0.4621 -0.8868 0.8868 0.4621 285.9442 974.4143)" fill="#FFFFFF" width="1.777" height="4.34"/>
					
						<rect x="951.078" y="252.342" transform="matrix(0.4623 -0.8867 0.8867 0.4623 286.1718 980.9657)" fill="#FFFFFF" width="1.776" height="4.34"/>
					
						<rect x="956.809" y="255.344" transform="matrix(0.4623 -0.8867 0.8867 0.4623 286.6077 987.6765)" fill="#FFFFFF" width="1.779" height="4.34"/>
					
						<rect x="962.542" y="258.333" transform="matrix(0.4625 -0.8866 0.8866 0.4625 286.8542 994.1949)" fill="#FFFFFF" width="1.778" height="4.339"/>
					
						<rect x="968.187" y="261.294" transform="matrix(0.4628 -0.8865 0.8865 0.4628 287.0747 1000.6174)" fill="#FFFFFF" width="1.777" height="4.34"/>
					
						<rect x="974.005" y="264.298" transform="matrix(0.4623 -0.8867 0.8867 0.4623 287.8986 1007.7236)" fill="#FFFFFF" width="1.776" height="4.34"/>
					
						<rect x="979.736" y="267.3" transform="matrix(0.4625 -0.8866 0.8866 0.4625 288.1451 1014.2581)" fill="#FFFFFF" width="1.778" height="4.339"/>
				</g>
			</g>
		</g>
	</g>
</g>
<g>
	<g>
		<g>
			<g>
				<rect x="823.021" y="121.981" fill="#FFFFFF" width="1.776" height="6.499"/>
				<rect x="823.021" y="131.661" fill="#FFFFFF" width="1.776" height="6.499"/>
				<rect x="823.021" y="141.34" fill="#FFFFFF" width="1.776" height="6.5"/>
				<rect x="823.021" y="151.021" fill="#FFFFFF" width="1.776" height="6.498"/>
				<rect x="823.021" y="160.698" fill="#FFFFFF" width="1.776" height="6.499"/>
				<rect x="823.021" y="170.379" fill="#FFFFFF" width="1.776" height="6.499"/>
				<rect x="823.021" y="180.057" fill="#FFFFFF" width="1.776" height="6.498"/>
			</g>
		</g>
	</g>
</g>
<polygon fill="#1267A9" points="1147.971,9.045 1147.971,194.191 981.191,282.545 981.309,9.045 "/>
<g>
	<g>
		<g>
			<g>
				<g>
					
						<rect x="1135.946" y="186.534" transform="matrix(0.4643 0.8857 -0.8857 0.4643 776.1578 -905.7959)" fill="#FFFFFF" width="1.777" height="4.322"/>
					
						<rect x="1130.294" y="189.508" transform="matrix(0.4645 0.8856 -0.8856 0.4645 775.5114 -899.1158)" fill="#FFFFFF" width="1.779" height="4.321"/>
					
						<rect x="1124.546" y="192.51" transform="matrix(0.4645 0.8856 -0.8856 0.4645 775.0653 -892.408)" fill="#FFFFFF" width="1.777" height="4.322"/>
					
						<rect x="1118.845" y="195.499" transform="matrix(0.4645 0.8856 -0.8856 0.4645 774.6599 -885.7588)" fill="#FFFFFF" width="1.777" height="4.321"/>
					
						<rect x="1113.144" y="198.488" transform="matrix(0.4645 0.8856 -0.8856 0.4645 774.2532 -879.1097)" fill="#FFFFFF" width="1.777" height="4.321"/>
					
						<rect x="1107.443" y="201.477" transform="matrix(0.4643 0.8857 -0.8857 0.4643 774.1228 -872.5458)" fill="#FFFFFF" width="1.777" height="4.322"/>
					
						<rect x="1101.743" y="204.466" transform="matrix(0.4638 0.8859 -0.8859 0.4638 774.2382 -866.0559)" fill="#FFFFFF" width="1.777" height="4.321"/>
				</g>
			</g>
			<g>
				<g>
					
						<rect x="1096.042" y="207.454" transform="matrix(0.4641 0.8858 -0.8858 0.4641 773.556 -859.3201)" fill="#FFFFFF" width="1.776" height="4.322"/>
					
						<rect x="1090.389" y="210.431" transform="matrix(0.4647 0.8855 -0.8855 0.4647 772.3984 -852.4904)" fill="#FFFFFF" width="1.778" height="4.321"/>
					
						<rect x="1084.641" y="213.431" transform="matrix(0.4643 0.8857 -0.8857 0.4643 772.4949 -845.9463)" fill="#FFFFFF" width="1.777" height="4.322"/>
					
						<rect x="1078.939" y="216.421" transform="matrix(0.4643 0.8857 -0.8857 0.4643 772.0875 -839.2953)" fill="#FFFFFF" width="1.777" height="4.321"/>
					
						<rect x="1073.239" y="219.409" transform="matrix(0.4638 0.8859 -0.8859 0.4638 772.1934 -832.7924)" fill="#FFFFFF" width="1.777" height="4.321"/>
					
						<rect x="1067.538" y="222.398" transform="matrix(0.4643 0.8857 -0.8857 0.4643 771.2736 -825.9944)" fill="#FFFFFF" width="1.777" height="4.322"/>
					
						<rect x="1061.838" y="225.386" transform="matrix(0.4645 0.8856 -0.8856 0.4645 770.5995 -819.2708)" fill="#FFFFFF" width="1.777" height="4.321"/>
				</g>
			</g>
			<g>
				<g>
					
						<rect x="1056.137" y="228.374" transform="matrix(0.4645 0.8856 -0.8856 0.4645 770.1931 -812.621)" fill="#FFFFFF" width="1.777" height="4.323"/>
					
						<rect x="1050.484" y="231.353" transform="matrix(0.4647 0.8855 -0.8855 0.4647 769.5634 -805.9561)" fill="#FFFFFF" width="1.778" height="4.321"/>
					
						<rect x="1044.736" y="234.352" transform="matrix(0.4645 0.8856 -0.8856 0.4645 769.3813 -799.3245)" fill="#FFFFFF" width="1.777" height="4.322"/>
					
						<rect x="1039.033" y="237.341" transform="matrix(0.4643 0.8857 -0.8857 0.4643 769.2382 -792.7427)" fill="#FFFFFF" width="1.777" height="4.321"/>
					
						<rect x="1033.334" y="240.33" transform="matrix(0.4645 0.8856 -0.8856 0.4645 768.5692 -786.0262)" fill="#FFFFFF" width="1.777" height="4.321"/>
					
						<rect x="1027.632" y="243.318" transform="matrix(0.4643 0.8857 -0.8857 0.4643 768.4243 -779.443)" fill="#FFFFFF" width="1.777" height="4.322"/>
					
						<rect x="1021.933" y="246.307" transform="matrix(0.4643 0.8857 -0.8857 0.4643 768.0179 -772.7937)" fill="#FFFFFF" width="1.777" height="4.321"/>
				</g>
			</g>
			<g>
				<g>
					
						<rect x="1016.232" y="249.296" transform="matrix(0.4645 0.8856 -0.8856 0.4645 767.3514 -766.079)" fill="#FFFFFF" width="1.777" height="4.321"/>
					
						<rect x="1010.578" y="252.275" transform="matrix(0.4647 0.8855 -0.8855 0.4647 766.7274 -759.421)" fill="#FFFFFF" width="1.778" height="4.321"/>
					
						<rect x="1004.831" y="255.272" transform="matrix(0.4643 0.8857 -0.8857 0.4643 766.7964 -752.8436)" fill="#FFFFFF" width="1.777" height="4.322"/>
					
						<rect x="999.129" y="258.262" transform="matrix(0.4645 0.8856 -0.8856 0.4645 766.1329 -746.1323)" fill="#FFFFFF" width="1.777" height="4.321"/>
					
						<rect x="993.429" y="261.251" transform="matrix(0.4638 0.8859 -0.8859 0.4638 766.471 -739.6534)" fill="#FFFFFF" width="1.777" height="4.32"/>
					
						<rect x="987.727" y="264.239" transform="matrix(0.4645 0.8856 -0.8856 0.4645 765.3208 -732.8341)" fill="#FFFFFF" width="1.777" height="4.322"/>
					
						<rect x="982.027" y="267.228" transform="matrix(0.4643 0.8857 -0.8857 0.4643 765.1691 -726.242)" fill="#FFFFFF" width="1.777" height="4.321"/>
				</g>
			</g>
		</g>
	</g>
</g>
<g>
	<g>
		<g>
			<g>
				<rect x="1137.874" y="121.981" fill="#FFFFFF" width="1.777" height="6.499"/>
				<rect x="1137.874" y="131.661" fill="#FFFFFF" width="1.777" height="6.499"/>
				<rect x="1137.874" y="141.34" fill="#FFFFFF" width="1.777" height="6.5"/>
				<rect x="1137.874" y="151.021" fill="#FFFFFF" width="1.777" height="6.498"/>
				<rect x="1137.874" y="160.698" fill="#FFFFFF" width="1.777" height="6.499"/>
				<rect x="1137.874" y="170.379" fill="#FFFFFF" width="1.777" height="6.499"/>
				<rect x="1137.874" y="180.057" fill="#FFFFFF" width="1.777" height="6.498"/>
			</g>
		</g>
	</g>
</g>
</svg>
