<?xml version="1.0" encoding="utf-8"?>
<!-- Generator: Adobe Illustrator 16.0.0, SVG Export Plug-In . SVG Version: 6.00 Build 0)  -->
<!DOCTYPE svg PUBLIC "-//W3C//DTD SVG 1.0//EN" "http://www.w3.org/TR/2001/REC-SVG-20010904/DTD/svg10.dtd">
<svg version="1.0" id="Layer_1" xmlns="http://www.w3.org/2000/svg" xmlns:xlink="http://www.w3.org/1999/xlink" x="0px" y="0px"
	 width="500px" height="500px" viewBox="0 0 500 500" enable-background="new 0 0 500 500" xml:space="preserve">
<g>
	<path fill="#F0663C" d="M56.354,492.441c0,0,0.124-72.713,0-78.887c9.434-6.938,0-14.158,0-14.158v-45.85c0,0,5.981-2.697,0-13.484
		c-0.508-12.473,0-86.529,0-86.529s10.279-6.463,0-14.834c-0.508-11.74,0-95.288,0-95.288V79.578c0,0,30.001-31.911,89.787-28.767
		C140.3,10.805,176.255,4.062,176.255,4.062h123.612c0,0,29.218,5.395,26.068,44.5c50.797-6.29,98.894,29.667,98.894,29.667v62.932
		c0,0-0.227,81.808,0,98.439c-6.743,7.417,0,12.136,0,12.136v240.705C424.83,492.441,116.25,500.307,56.354,492.441"/>
	<path fill="#FFFFFF" d="M56.354,143.404c0,0,145.064-80.751,368.475-2.248V78.232c0,0-58.112-39.63-98.894-29.666
		c5.073-37.914-26.068-44.501-26.068-44.501H176.256c0,0-36.981,8.694-30.115,46.745c-62.915-5.77-89.787,28.771-89.787,28.771
		V143.404L56.354,143.404z"/>
	<path fill="#8ECBD2" d="M166.831,45.04c0,0-5.054-11.128,7.077-19.893c12.141-8.761,123.052-1.684,123.052-1.684
		s14.833,4.046,12.137,21.577c-26.97-0.674-71.49-1.684-71.49-1.684L166.831,45.04z"/>
	<rect x="60.97" y="241.75" fill="#B83E29" width="359.077" height="9.167"/>
	<rect x="61.363" y="343.973" fill="#B83E29" width="360.521" height="8.954"/>
	<rect x="63.218" y="401.509" fill="#B83E29" width="358.666" height="8.954"/>
	<path fill="#B83E29" d="M58.811,241.102l2.161,0.653v3.973C60.97,245.728,60.307,242.665,58.811,241.102"/>
	<path fill="#B83E29" d="M60.97,247.043v3.873l-2.785,1.11C58.186,252.026,60.656,249.582,60.97,247.043"/>
	<path fill="#B83E29" d="M420.047,241.754l3.901-1.104c0,0-4.882,4.931,0.385,10.67c-3.243-0.026-4.286-0.4-4.286-0.4V241.754z"/>
	<path fill="#B83E29" d="M61.366,343.973l-4.406-2.766c0,0,5.142,8.211-0.216,12.109c2.928-0.715,4.622-0.39,4.622-0.39V343.973z"/>
	<path fill="#B83E29" d="M63.221,401.509l-5.647-0.991c0,0,6.78,5.515,0,12.047c4.343-2.103,5.647-2.103,5.647-2.103V401.509z"/>
	<g opacity="0.14">
		<g>
			<g>
				<defs>
					<rect id="SVGID_1_" x="240.479" y="42.389" width="184.352" height="453.546"/>
				</defs>
				<clipPath id="SVGID_2_">
					<use xlink:href="#SVGID_1_"  overflow="visible"/>
				</clipPath>
				<path clip-path="url(#SVGID_2_)" fill="#231F20" d="M240.479,495.938l184.352-2.06V78.23c0,0-62.494-42.323-98.889-29.667
					c-41.118-9.589-85.463-5.147-85.463-5.147V495.938L240.479,495.938z"/>
			</g>
		</g>
	</g>
</g>
<polygon fill="#FFFFFF" points="240.479,367.653 240.479,361.589 295.334,347.806 295.334,366.549 "/>
<polygon fill="#FFFFFF" points="240.479,370.961 261.43,370.961 261.43,382.817 275.212,382.817 275.212,392.186 226.419,392.186 
	226.419,384.471 240.479,384.471 "/>
<polygon fill="#FFFFFF" points="236.069,394.114 266.664,394.114 258.395,441.527 244.338,441.527 "/>
</svg>
